<svg width="24" height="25" viewBox="0 0 24 25" fill="none" xmlns="http://www.w3.org/2000/svg">
<path d="M10.96 2.31506H10C9 2.31506 8 2.31506 8 4.31506C8 6.31506 9 6.31506 10 6.31506H14C16 6.31506 16 5.31506 16 4.31506C16 2.31506 15 2.31506 14 2.31506" stroke="#F6F6F6" stroke-width="1.5" stroke-miterlimit="10" stroke-linecap="round" stroke-linejoin="round"/>
<path d="M3 10.3151C3 5.75508 4.67 4.51508 8 4.33508" stroke="#F6F6F6" stroke-width="1.5" stroke-miterlimit="10" stroke-linecap="round" stroke-linejoin="round"/>
<path d="M16 4.33508C19.33 4.51508 21 5.74508 21 10.3151V16.3151C21 20.3151 20 22.3151 15 22.3151H9C4 22.3151 3 20.3151 3 16.3151V14.2251" stroke="#F6F6F6" stroke-width="1.5" stroke-miterlimit="10" stroke-linecap="round" stroke-linejoin="round"/>
</svg>
