<svg width="24" height="25" viewBox="0 0 24 25" fill="none" xmlns="http://www.w3.org/2000/svg">
<path d="M15.73 2.31506C14.14 2.31506 13.5 2.88506 13.5 4.29506V8.82506C13.5 10.2451 14.14 10.8051 15.73 10.8051H19.77C21.36 10.8051 22 10.2351 22 8.82506V4.29506C22 2.88506 21.36 2.31506 19.77 2.31506" stroke="#F6F6F6" stroke-width="1.5" stroke-linecap="round" stroke-linejoin="round"/>
<path d="M22 20.0851V16.0451C22 14.4551 21.36 13.8151 19.77 13.8151H15.73C14.14 13.8151 13.5 14.4551 13.5 16.0451V20.0851C13.5 21.6751 14.14 22.3151 15.73 22.3151H19.77C21.36 22.3151 22 21.6751 22 20.0851Z" stroke="#F6F6F6" stroke-width="1.5" stroke-linecap="round" stroke-linejoin="round"/>
<path d="M10.5 8.83506V4.29506C10.5 2.88506 9.86 2.31506 8.27 2.31506H4.23C2.64 2.31506 2 2.88506 2 4.29506V8.82506C2 10.2451 2.64 10.8051 4.23 10.8051H8.27C9.86 10.8151 10.5 10.2451 10.5 8.83506Z" stroke="#F6F6F6" stroke-width="1.5" stroke-linecap="round" stroke-linejoin="round"/>
<path d="M8.27 22.3151C9.86 22.3151 10.5 21.6751 10.5 20.0851V16.0451C10.5 14.4551 9.86 13.8151 8.27 13.8151H4.23C2.64 13.8151 2 14.4551 2 16.0451V20.0851C2 21.6751 2.64 22.3151 4.23 22.3151" stroke="#F6F6F6" stroke-width="1.5" stroke-linecap="round" stroke-linejoin="round"/>
</svg>
