<svg width="21" height="15" viewBox="0 0 21 15" fill="none" xmlns="http://www.w3.org/2000/svg">
<path d="M1 0.786621C0.447715 0.786621 0 1.23434 0 1.78662C0 2.33891 0.447715 2.78662 1 2.78662V0.786621ZM1 2.78662H21V0.786621H1V2.78662Z" fill="#0070FF"/>
<path d="M1 6.78662C0.447715 6.78662 0 7.23434 0 7.78662C0 8.33891 0.447715 8.78662 1 8.78662V6.78662ZM1 8.78662H21V6.78662H1V8.78662Z" fill="#0070FF"/>
<path d="M1 12.7866C0.447715 12.7866 0 13.2343 0 13.7866C0 14.3389 0.447715 14.7866 1 14.7866V12.7866ZM1 14.7866H21V12.7866H1V14.7866Z" fill="#0070FF"/>
</svg>
