<svg width="26" height="24" viewBox="0 0 26 24" fill="none" xmlns="http://www.w3.org/2000/svg">
<path d="M11.4247 23.2801C11.6397 23.4829 11.9242 23.5957 12.2197 23.5951C12.5142 23.5977 12.7965 23.4782 12.9997 23.2651C13.2141 23.0562 13.3351 22.7695 13.3351 22.4701C13.3351 22.1707 13.2141 21.884 12.9997 21.6751L4.44962 13.125H24.28C24.9013 13.125 25.405 12.6213 25.405 12C25.405 11.3787 24.9013 10.875 24.28 10.875H4.44633L13.0147 2.28009C13.2291 2.07116 13.3501 1.78448 13.3501 1.48509C13.3501 1.18571 13.2291 0.899026 13.0147 0.690094C12.5755 0.251414 11.8639 0.251414 11.4247 0.690094L0.924713 11.1901C0.486033 11.6293 0.486033 12.3409 0.924713 12.7801L11.4247 23.2801Z" fill="black"/>
</svg>
