<svg width="432" height="76" viewBox="0 0 432 76" fill="none" xmlns="http://www.w3.org/2000/svg">
<rect y="42.7529" width="143" height="68" rx="30" transform="rotate(-16.3419 0 42.7529)" fill="#FF4D0A"/>
<path d="M31.3897 74.8161L27.8614 62.7827C27.6982 62.2262 28.0237 61.6305 28.5803 61.4673L35.5854 59.4133C36.2571 59.2164 36.952 59.5962 37.1602 60.3063C37.3572 60.978 36.9774 61.6729 36.3057 61.8699L30.8743 63.4624L31.7803 66.5524L36.7127 65.1061C37.4804 64.881 38.0399 65.1546 38.2594 65.9031C38.4789 66.6516 38.1613 67.2033 37.3936 67.4284L32.4612 68.8746L33.9806 74.0564C34.0425 74.2675 33.9205 74.4909 33.7093 74.5528L31.8861 75.0874C31.675 75.1493 31.4516 75.0272 31.3897 74.8161ZM44.5493 60.5365L45.1251 60.3677C45.72 60.1933 46.3405 60.5324 46.515 61.1273C46.6894 61.7223 46.3503 62.3428 45.7553 62.5172L45.1796 62.686C43.7594 63.1024 43.3306 64.2703 43.7246 65.6137L45.2383 70.7763C45.2946 70.9683 45.1725 71.1916 44.9806 71.2479L43.2341 71.76C43.0422 71.8163 42.8188 71.6942 42.7626 71.5023L41.2319 66.2821C40.4722 63.6911 41.6321 61.3919 44.5493 60.5365ZM51.0097 69.0841L48.5506 60.6972C48.3536 60.0255 48.747 59.3057 49.4379 59.1031C50.1096 58.9062 50.8294 59.2995 51.0263 59.9713L53.4855 68.3582C53.5418 68.5501 53.4197 68.7735 53.2278 68.8297L51.4813 69.3418C51.2894 69.3981 51.066 69.276 51.0097 69.0841ZM47.162 56.9568C46.92 56.1315 47.3948 55.2628 48.2392 55.0152C49.0645 54.7733 49.9332 55.248 50.1752 56.0733C50.4171 56.8985 49.9424 57.7672 49.1171 58.0092C48.2727 58.2568 47.404 57.782 47.162 56.9568ZM63.2995 61.5206L57.4075 63.2482C58.094 64.3808 59.3091 64.8999 60.5758 64.5285C61.3051 64.3146 61.8663 64.025 62.3407 63.5107C62.5972 63.248 62.8817 63.0812 63.1312 63.008C63.7837 62.8167 64.3715 63.1862 64.5347 63.7428C64.9792 65.259 62.3033 66.4396 61.2286 66.7547C58.2538 67.627 55.518 66.1157 54.6402 63.1217C53.7623 60.1278 55.172 57.4009 58.0316 56.5625C60.7761 55.7578 63.3133 57.1605 64.1292 59.9434C64.4162 60.9222 63.7985 61.3743 63.2995 61.5206ZM58.6844 58.7887C57.5137 59.132 56.8424 60.1834 56.8955 61.5017L61.5207 60.1455C60.9743 58.9927 59.8551 58.4455 58.6844 58.7887ZM74.4482 62.2116L72.9288 57.0297C72.5349 55.6863 71.3764 55.0047 70.1289 55.3705C68.8622 55.7419 68.2551 56.9412 68.649 58.2846L70.1684 63.4665C70.2247 63.6584 70.1026 63.8818 69.9107 63.938L68.1642 64.4501C67.9723 64.5064 67.7489 64.3843 67.6927 64.1924L65.2335 55.8055C65.0365 55.1338 65.4299 54.414 66.1208 54.2114C66.6966 54.0426 67.3137 54.2993 67.5865 54.8029C68.1165 53.9806 68.9364 53.365 70.0112 53.0499C72.4102 52.3465 74.628 53.6553 75.3877 56.2462L76.924 61.4856C76.9803 61.6776 76.8582 61.9009 76.6663 61.9572L74.9198 62.4693C74.7279 62.5256 74.5045 62.4035 74.4482 62.2116ZM83.724 57.7827C85.2786 57.3269 86.0428 55.8106 85.5307 54.0641C85.0299 52.3561 83.5679 51.4925 82.0133 51.9484C80.4204 52.4154 79.6561 53.9317 80.157 55.6398C80.6691 57.3863 82.1311 58.2498 83.724 57.7827ZM85.6867 45.6399L87.9489 53.3551C88.838 56.3874 87.3516 59.1368 84.3768 60.009C81.3829 60.8869 78.6279 59.3812 77.7388 56.3489C76.8609 53.3549 78.1555 50.6619 80.8615 49.8684C82.109 49.5026 83.3132 49.6289 84.3308 50.1851L83.2109 46.3658C83.014 45.6941 83.4074 44.9744 84.0791 44.7774C84.77 44.5748 85.4898 44.9682 85.6867 45.6399ZM91.9769 46.6092C93.0324 46.2997 95.4695 45.9394 95.8972 47.398C96.0604 47.9546 95.7845 48.5774 95.1703 48.7575C94.9208 48.8306 94.6048 48.8191 94.2719 48.75C93.6998 48.6468 93.1862 48.6723 92.6296 48.8355C92.0731 48.9987 91.812 49.3879 91.9414 49.8293C92.3522 51.2303 96.8901 49.1494 97.9143 52.6424C98.4826 54.5808 97.3786 56.2175 95.0947 56.8872C94.0392 57.1967 91.3311 57.699 90.8865 56.1828C90.7233 55.6262 91.0184 54.9978 91.6709 54.8065C91.9204 54.7333 92.2556 54.7392 92.6077 54.8027C93.2487 54.9274 93.8086 54.8466 94.4419 54.6609C95.3056 54.4077 95.6176 53.8368 95.4938 53.4146C95.0436 51.8793 90.5057 53.9601 89.5209 50.6015C88.9807 48.7591 89.9041 47.217 91.9769 46.6092ZM107.325 52.5716L105.806 47.3898C105.412 46.0463 104.253 45.3648 103.006 45.7306C101.739 46.102 101.132 47.3012 101.526 48.6447L103.045 53.8265C103.101 54.0184 102.979 54.2418 102.787 54.2981L101.041 54.8102C100.849 54.8665 100.626 54.7444 100.569 54.5524L96.9848 42.3271C96.7878 41.6554 97.1812 40.9357 97.8721 40.7331C98.5438 40.5361 99.2636 40.9295 99.4606 41.6012L100.496 45.1325C101.012 44.335 101.832 43.7194 102.888 43.4099C105.287 42.7065 107.505 44.0153 108.265 46.6063L109.801 51.8457C109.857 52.0376 109.735 52.261 109.543 52.3173L107.797 52.8293C107.605 52.8856 107.381 52.7635 107.325 52.5716ZM112.303 51.1121L109.843 42.7252C109.647 42.0535 110.04 41.3337 110.731 41.1311C111.403 40.9342 112.122 41.3275 112.319 41.9993L114.778 50.3862C114.835 50.5781 114.713 50.8015 114.521 50.8577L112.774 51.3698C112.582 51.4261 112.359 51.304 112.303 51.1121ZM108.455 38.9848C108.213 38.1595 108.688 37.2908 109.532 37.0432C110.357 36.8013 111.226 37.276 111.468 38.1013C111.71 38.9265 111.235 39.7952 110.41 40.0372C109.566 40.2848 108.697 39.81 108.455 38.9848ZM120.284 40.7267C118.73 41.1825 117.966 42.6988 118.478 44.4453C118.979 46.1534 120.441 47.0169 121.995 46.5611C123.588 46.094 124.352 44.5777 123.851 42.8696C123.339 41.1232 121.877 40.2596 120.284 40.7267ZM118.322 52.8695L116.06 45.1543C115.17 42.122 116.657 39.3727 119.632 38.5004C122.626 37.6226 125.381 39.1282 126.27 42.1606C127.148 45.1545 125.853 47.8476 123.147 48.641C121.899 49.0068 120.695 48.8805 119.678 48.3244L120.797 52.1436C120.994 52.8153 120.601 53.5351 119.929 53.732C119.238 53.9346 118.519 53.5412 118.322 52.8695Z" fill="#FCFCF4"/>
<rect x="147.412" y="7.27868" width="102" height="66" rx="29" transform="rotate(19.2708 147.412 7.27868)" stroke="#CC3694" stroke-width="2"/>
<path d="M153.864 49.7265L157.785 38.5122C157.976 37.9647 158.588 37.67 159.136 37.8614L166.026 40.2707C166.687 40.5017 167.031 41.2151 166.787 41.9137C166.556 42.5744 165.842 42.9183 165.182 42.6872L159.839 40.8192L158.776 43.8588L163.628 45.5552C164.383 45.8192 164.679 46.3675 164.421 47.1038C164.164 47.8401 163.585 48.1036 162.829 47.8396L157.977 46.1432L156.908 49.2017L162.251 51.0697C162.912 51.3007 163.255 52.0141 163.024 52.6749C162.78 53.3735 162.067 53.7173 161.406 53.4862L154.515 51.077C153.968 50.8856 153.673 50.274 153.864 49.7265ZM167.658 54.9731L166.78 46.2757C166.708 45.5725 167.223 44.9475 167.945 44.8822C168.122 44.8595 168.324 44.8877 168.475 44.9405C168.928 45.0989 169.289 45.5217 169.345 46.0285L169.887 52.2351L174.159 47.7117C174.5 47.3434 175.045 47.2375 175.498 47.396C175.668 47.4554 175.844 47.5591 175.969 47.6875C176.493 48.1885 176.506 48.9983 176.012 49.5034L169.905 55.7585C169.539 56.139 169.234 56.2231 168.8 56.0713L168.328 55.9063C167.894 55.7545 167.708 55.4988 167.658 54.9731ZM184.349 57.0794L178.553 55.053C178.451 56.3735 179.137 57.503 180.383 57.9387C181.1 58.1895 181.725 58.2809 182.41 58.1391C182.772 58.0747 183.1 58.1048 183.346 58.1906C183.988 58.4151 184.25 59.0578 184.059 59.6053C183.537 61.0967 180.674 60.4983 179.617 60.1287C176.691 59.1056 175.347 56.2839 176.376 53.3387C177.406 50.3935 180.14 48.9976 182.953 49.9811C185.653 50.925 186.899 53.5428 185.942 56.2804C185.605 57.2432 184.839 57.251 184.349 57.0794ZM182.187 52.1711C181.036 51.7685 179.878 52.2323 179.153 53.335L183.703 54.9257C183.93 53.6703 183.339 52.5737 182.187 52.1711ZM193.01 64.1331L194.792 59.0357C195.254 57.7141 194.709 56.4854 193.482 56.0564C192.236 55.6207 191.044 56.2422 190.582 57.5637L188.8 62.6612C188.734 62.85 188.504 62.9605 188.316 62.8945L186.598 62.2938C186.409 62.2278 186.298 61.9985 186.364 61.8097L189.249 53.5594C189.48 52.8986 190.219 52.5425 190.898 52.7802C191.465 52.9782 191.817 53.5463 191.746 54.1145C192.655 53.7546 193.68 53.7316 194.738 54.1012C197.097 54.9263 198.138 57.2818 197.247 59.8305L195.445 64.9846C195.379 65.1734 195.15 65.2839 194.961 65.2179L193.243 64.6172C193.054 64.5512 192.944 64.3219 193.01 64.1331ZM204.677 60.0551L203.94 59.7976L201.399 67.0662C201.333 67.255 201.104 67.3655 200.915 67.2995L199.197 66.6988C199.008 66.6328 198.898 66.4035 198.964 66.2147L201.505 58.9461L200.769 58.6887C200.183 58.4841 199.876 57.8471 200.081 57.2618C200.286 56.6766 200.923 56.3696 201.508 56.5742L202.244 56.8316L202.759 55.3591C202.99 54.6983 203.729 54.3422 204.409 54.5798C205.069 54.8108 205.426 55.5498 205.194 56.2105L204.68 57.6831L205.416 57.9406C206.001 58.1452 206.308 58.7822 206.104 59.3674C205.899 59.9527 205.262 60.2597 204.677 60.0551ZM211.46 59.9477C212.498 60.3107 214.689 61.4369 214.187 62.8718C213.996 63.4193 213.409 63.7649 212.805 63.5537C212.559 63.4679 212.309 63.2745 212.079 63.0244C211.674 62.6074 211.241 62.3291 210.694 62.1377C210.146 61.9462 209.708 62.1106 209.556 62.5448C209.074 63.923 213.975 64.8737 212.773 68.3098C212.107 70.2166 210.256 70.9044 208.009 70.1189C206.971 69.7558 204.477 68.5872 204.999 67.0958C205.19 66.5483 205.796 66.2092 206.438 66.4336C206.683 66.5195 206.952 66.7195 207.201 66.9761C207.65 67.4507 208.152 67.7111 208.775 67.9289C209.625 68.2259 210.211 67.9435 210.356 67.5281C210.884 66.0178 205.983 65.0671 207.138 61.7632C207.772 59.9508 209.421 59.2348 211.46 59.9477Z" fill="#CC3694"/>
<g filter="url(#filter0_d_228_3708)">
<rect x="220.971" y="25.2612" width="60" height="60" rx="30" fill="#EDF9FF" shape-rendering="crispEdges"/>
<circle cx="250.971" cy="55.2612" r="20" fill="#0070FF"/>
</g>
<rect x="247.291" y="48.9087" width="117" height="66" rx="29" transform="rotate(-24 247.291 48.9087)" stroke="#FF3301" stroke-width="2"/>
<path d="M280.241 61.254C281.575 60.6602 283.019 60.4115 284.294 60.7193C285.472 61.0049 285.944 62.0646 285.575 62.7106C285.447 62.9645 285.234 63.1251 285.014 63.2227C284.594 63.4098 284.076 63.3776 283.483 63.2257C282.775 63.0597 281.96 63.247 281.266 63.5561C279.75 64.2313 279.444 65.2652 279.785 66.0325C280.892 68.5174 287.031 63.7697 289.138 68.5018C290.033 70.5116 289.357 73.221 286.177 74.6365C284.497 75.3848 282.854 75.4814 281.286 75.1067C280.108 74.8212 279.636 73.7614 280.005 73.1154C280.133 72.8615 280.346 72.701 280.565 72.6033C280.986 72.4162 281.503 72.4484 282.096 72.6003C283.098 72.8332 284.111 72.798 285.152 72.3343C286.687 71.651 287.054 70.4587 286.672 69.6C285.59 67.17 279.531 72.1004 277.319 67.1307C276.465 65.2123 277.062 62.6695 280.241 61.254ZM291.015 67.469L289.039 63.0292C288.754 62.3897 289.048 61.6239 289.706 61.3311C290.345 61.0464 291.111 61.3403 291.396 61.9798L293.348 66.3648C293.917 67.6438 295.156 68.1648 296.344 67.6361C297.532 67.1073 297.974 65.8379 297.404 64.5589L295.452 60.1739C295.167 59.5344 295.461 58.7686 296.101 58.4839C296.758 58.1911 297.524 58.485 297.809 59.1245L299.785 63.5643C300.884 66.0309 299.84 68.5537 297.263 69.7007C294.687 70.8477 292.114 69.9356 291.015 67.469ZM305.299 56.906C303.819 57.5649 303.264 59.1695 304.004 60.8322C304.728 62.4583 306.292 63.1193 307.772 62.4604C309.289 61.7852 309.844 60.1806 309.12 58.5545C308.38 56.8918 306.816 56.2308 305.299 56.906ZM304.972 69.2021L301.702 61.8572C300.417 58.9704 301.524 56.0475 304.356 54.7866C307.206 53.5176 310.137 54.6427 311.422 57.5295C312.691 60.3797 311.767 63.2213 309.191 64.3683C308.003 64.897 306.793 64.9324 305.71 64.5168L307.329 68.1527C307.614 68.7922 307.32 69.5579 306.681 69.8427C306.023 70.1355 305.257 69.8416 304.972 69.2021ZM317.142 51.6334C315.662 52.2923 315.107 53.8969 315.847 55.5595C316.571 57.1857 318.135 57.8466 319.615 57.1877C321.131 56.5125 321.687 54.9079 320.963 53.2818C320.222 51.6192 318.658 50.9582 317.142 51.6334ZM316.815 63.9294L313.545 56.5845C312.259 53.6977 313.366 50.7748 316.198 49.5139C319.048 48.2449 321.98 49.37 323.265 52.2568C324.534 55.1071 323.61 57.9487 321.033 59.0956C319.846 59.6244 318.636 59.6597 317.553 59.2441L319.172 62.88C319.456 63.5195 319.163 64.2853 318.523 64.57C317.865 64.8629 317.1 64.5689 316.815 63.9294ZM332.291 54.0833C329.459 55.3442 326.547 54.211 325.261 51.3241C323.992 48.4739 325.099 45.551 327.931 44.2901C330.781 43.0211 333.712 44.1462 334.981 46.9965C336.267 49.8833 335.142 52.8143 332.291 54.0833ZM331.348 51.9639C332.864 51.2887 333.42 49.6841 332.679 48.0214C331.955 46.3953 330.391 45.7344 328.875 46.4095C327.395 47.0684 326.839 48.6731 327.563 50.2992C328.304 51.9618 329.868 52.6228 331.348 51.9639ZM339.328 39.238L339.876 38.9939C340.442 38.7417 341.102 38.9952 341.354 39.5615C341.607 40.1279 341.353 40.7881 340.787 41.0403L340.239 41.2843C338.887 41.8863 338.617 43.1008 339.187 44.3798L341.375 49.2946C341.456 49.4774 341.365 49.715 341.182 49.7964L339.52 50.5366C339.337 50.618 339.099 50.5267 339.018 50.344L336.805 45.3743C335.707 42.9078 336.55 40.4744 339.328 39.238ZM347.83 37.9919L347.118 38.3092L350.25 45.3435C350.331 45.5262 350.24 45.7638 350.057 45.8452L348.394 46.5854C348.212 46.6668 347.974 46.5755 347.893 46.3928L344.761 39.3585L344.048 39.6758C343.482 39.928 342.822 39.6746 342.569 39.1082C342.317 38.5418 342.571 37.8816 343.137 37.6294L343.85 37.3122L343.215 35.8871C342.93 35.2476 343.224 34.4818 343.882 34.189C344.522 33.9043 345.287 34.1982 345.572 34.8377L346.207 36.2628L346.919 35.9456C347.486 35.6934 348.146 35.9468 348.398 36.5132C348.65 37.0796 348.397 37.7397 347.83 37.9919Z" fill="#FF4D0A"/>
<rect x="357" y="28.3765" width="76" height="68" rx="30" transform="rotate(-10 357 28.3765)" fill="#CC3694"/>
<path d="M384.656 63.7109L382.478 51.3614C382.378 50.7902 382.767 50.2341 383.338 50.1334L390.527 48.8658C391.217 48.7442 391.865 49.1985 391.994 49.9272C392.115 50.6166 391.661 51.2653 390.972 51.3869L385.398 52.3697L385.957 55.5408L391.019 54.6483C391.807 54.5094 392.333 54.8431 392.468 55.6113C392.604 56.3794 392.227 56.8926 391.439 57.0315L386.377 57.9241L387.315 63.242C387.353 63.4587 387.207 63.6672 386.99 63.7054L385.119 64.0353C384.903 64.0735 384.694 63.9275 384.656 63.7109ZM395.651 57.8525L394.807 53.0664C394.686 52.377 395.156 51.7051 395.865 51.5801C396.555 51.4585 397.227 51.929 397.348 52.6183L398.182 57.3454C398.425 58.7242 399.501 59.5295 400.781 59.3038C402.062 59.078 402.797 57.9532 402.554 56.5744L401.721 51.8473C401.599 51.158 402.07 50.4861 402.759 50.3645C403.468 50.2395 404.14 50.71 404.262 51.3993L405.106 56.1855C405.574 58.8445 403.951 61.0397 401.174 61.5294C398.397 62.0191 396.12 60.5115 395.651 57.8525ZM415.121 58.3594L414.183 53.0415C413.94 51.6628 412.864 50.8574 411.583 51.0831C410.283 51.3124 409.547 52.4372 409.791 53.816L410.728 59.1339C410.763 59.3309 410.617 59.5394 410.42 59.5741L408.628 59.8902C408.431 59.9249 408.222 59.7789 408.187 59.5819L406.67 50.9747C406.548 50.2853 407.019 49.6134 407.728 49.4884C408.319 49.3842 408.904 49.7075 409.119 50.2382C409.737 49.4794 410.62 48.9582 411.723 48.7637C414.185 48.3296 416.244 49.8754 416.713 52.5344L417.661 57.9114C417.696 58.1084 417.55 58.3169 417.353 58.3516L415.561 58.6677C415.364 58.7024 415.155 58.5564 415.121 58.3594Z" fill="#FCFCF4"/>
<defs>
<filter id="filter0_d_228_3708" x="216.971" y="25.2612" width="68" height="68" filterUnits="userSpaceOnUse" color-interpolation-filters="sRGB">
<feFlood flood-opacity="0" result="BackgroundImageFix"/>
<feColorMatrix in="SourceAlpha" type="matrix" values="0 0 0 0 0 0 0 0 0 0 0 0 0 0 0 0 0 0 127 0" result="hardAlpha"/>
<feOffset dy="4"/>
<feGaussianBlur stdDeviation="2"/>
<feComposite in2="hardAlpha" operator="out"/>
<feColorMatrix type="matrix" values="0 0 0 0 0 0 0 0 0 0 0 0 0 0 0 0 0 0 0.04 0"/>
<feBlend mode="normal" in2="BackgroundImageFix" result="effect1_dropShadow_228_3708"/>
<feBlend mode="normal" in="SourceGraphic" in2="effect1_dropShadow_228_3708" result="shape"/>
</filter>
</defs>
</svg>
