<svg width="430" height="102" viewBox="0 0 430 102" fill="none" xmlns="http://www.w3.org/2000/svg">
<rect x="-14" y="42.7528" width="143" height="68" rx="30" transform="rotate(-16.3419 -14 42.7528)" fill="#FF4D0A"/>
<path d="M17.39 74.816L13.8616 62.7827C13.6984 62.2261 14.024 61.6304 14.5805 61.4672L21.5856 59.4132C22.2573 59.2163 22.9523 59.5961 23.1605 60.3062C23.3574 60.9779 22.9776 61.6729 22.3059 61.8698L16.8746 63.4624L17.7806 66.5523L22.7129 65.106C23.4806 64.8809 24.0402 65.1545 24.2597 65.903C24.4791 66.6515 24.1615 67.2032 23.3938 67.4283L18.4615 68.8745L19.9809 74.0563C20.0428 74.2675 19.9207 74.4908 19.7096 74.5527L17.8863 75.0873C17.6752 75.1492 17.4519 75.0272 17.39 74.816ZM30.5496 60.5364L31.1253 60.3676C31.7203 60.1932 32.3408 60.5323 32.5152 61.1272C32.6897 61.7222 32.3505 62.3427 31.7556 62.5171L31.1798 62.6859C29.7596 63.1024 29.3309 64.2702 29.7248 65.6136L31.2386 70.7763C31.2948 70.9682 31.1728 71.1916 30.9808 71.2478L29.2344 71.7599C29.0424 71.8162 28.8191 71.6941 28.7628 71.5022L27.2322 66.282C26.4725 63.6911 27.6324 61.3918 30.5496 60.5364ZM37.01 69.084L34.5508 60.6971C34.3538 60.0254 34.7472 59.3056 35.4381 59.103C36.1098 58.9061 36.8296 59.2995 37.0266 59.9712L39.4857 68.3581C39.542 68.55 39.4199 68.7734 39.228 68.8296L37.4815 69.3417C37.2896 69.398 37.0662 69.2759 37.01 69.084ZM33.1623 56.9567C32.9203 56.1314 33.395 55.2628 34.2395 55.0151C35.0647 54.7732 35.9334 55.2479 36.1754 56.0732C36.4174 56.8984 35.9426 57.7671 35.1174 58.0091C34.2729 58.2567 33.4042 57.7819 33.1623 56.9567ZM49.2997 61.5205L43.4078 63.2481C44.0942 64.3807 45.3093 64.8998 46.576 64.5284C47.3053 64.3145 47.8665 64.0249 48.341 63.5107C48.5974 63.2479 48.882 63.0811 49.1315 63.0079C49.784 62.8166 50.3717 63.1862 50.5349 63.7427C50.9795 65.2589 48.3035 66.4395 47.2288 66.7546C44.254 67.6269 41.5183 66.1156 40.6404 63.1216C39.7625 60.1277 41.1722 57.4009 44.0319 56.5624C46.7763 55.7577 49.3135 57.1605 50.1295 59.9433C50.4165 60.9221 49.7987 61.3742 49.2997 61.5205ZM44.6846 58.7887C43.5139 59.1319 42.8426 60.1833 42.8957 61.5016L47.521 60.1454C46.9745 58.9926 45.8553 58.4454 44.6846 58.7887ZM60.4485 62.2115L58.9291 57.0297C58.5352 55.6862 57.3766 55.0047 56.1291 55.3704C54.8625 55.7418 54.2554 56.9411 54.6493 58.2846L56.1687 63.4664C56.2249 63.6583 56.1029 63.8817 55.9109 63.938L54.1645 64.4501C53.9725 64.5063 53.7492 64.3842 53.6929 64.1923L51.2337 55.8054C51.0368 55.1337 51.4302 54.4139 52.1211 54.2114C52.6968 54.0425 53.314 54.2993 53.5867 54.8029C54.1167 53.9805 54.9367 53.3649 56.0114 53.0498C58.4104 52.3464 60.6283 53.6552 61.388 56.2461L62.9242 61.4856C62.9805 61.6775 62.8584 61.9009 62.6665 61.9571L60.9201 62.4692C60.7281 62.5255 60.5048 62.4034 60.4485 62.2115ZM69.7243 57.7826C71.2788 57.3268 72.0431 55.8105 71.531 54.0641C71.0301 52.356 69.5681 51.4925 68.0136 51.9483C66.4206 52.4154 65.6564 53.9316 66.1572 55.6397C66.6693 57.3862 68.1313 58.2497 69.7243 57.7826ZM71.687 45.6398L73.9492 53.355C74.8383 56.3874 73.3518 59.1367 70.3771 60.0089C67.3831 60.8868 64.6281 59.3811 63.739 56.3488C62.8612 53.3548 64.1557 50.6618 66.8618 49.8683C68.1093 49.5025 69.3134 49.6288 70.331 50.185L69.2112 46.3658C69.0142 45.694 69.4076 44.9743 70.0793 44.7773C70.7702 44.5747 71.49 44.9681 71.687 45.6398ZM77.9771 46.6091C79.0327 46.2996 81.4697 45.9394 81.8974 47.398C82.0606 47.9545 81.7847 48.5773 81.1706 48.7574C80.9211 48.8305 80.6051 48.819 80.2722 48.7499C79.7 48.6467 79.1864 48.6722 78.6299 48.8354C78.0733 48.9986 77.8123 49.3878 77.9417 49.8292C78.3525 51.2302 82.8903 49.1493 83.9145 52.6423C84.4829 54.5807 83.3788 56.2175 81.095 56.8871C80.0394 57.1966 77.3313 57.6989 76.8867 56.1827C76.7236 55.6261 77.0187 54.9977 77.6712 54.8064C77.9207 54.7332 78.2559 54.7392 78.608 54.8027C79.249 54.9273 79.8088 54.8465 80.4422 54.6608C81.3058 54.4076 81.6178 53.8368 81.494 53.4145C81.0438 51.8792 76.506 53.9601 75.5212 50.6015C74.981 48.759 75.9044 47.2169 77.9771 46.6091ZM93.3253 52.5715L91.8059 47.3897C91.412 46.0463 90.2534 45.3647 89.0059 45.7305C87.7392 46.1019 87.1321 47.3012 87.5261 48.6446L89.0454 53.8264C89.1017 54.0184 88.9796 54.2417 88.7877 54.298L87.0413 54.8101C86.8493 54.8664 86.626 54.7443 86.5697 54.5524L82.985 42.3271C82.7881 41.6553 83.1815 40.9356 83.8724 40.733C84.5441 40.536 85.2639 40.9294 85.4608 41.6011L86.4962 45.1325C87.0127 44.3349 87.8326 43.7194 88.8882 43.4099C91.2872 42.7064 93.5051 44.0153 94.2648 46.6062L95.801 51.8456C95.8573 52.0375 95.7352 52.2609 95.5433 52.3172L93.7968 52.8293C93.6049 52.8855 93.3815 52.7635 93.3253 52.5715ZM98.3029 51.112L95.8437 42.7251C95.6468 42.0534 96.0401 41.3336 96.7311 41.131C97.4028 40.9341 98.1225 41.3275 98.3195 41.9992L100.779 50.3861C100.835 50.578 100.713 50.8014 100.521 50.8577L98.7745 51.3697C98.5825 51.426 98.3592 51.3039 98.3029 51.112ZM94.4552 38.9847C94.2132 38.1594 94.688 37.2908 95.5324 37.0432C96.3577 36.8012 97.2264 37.2759 97.4683 38.1012C97.7103 38.9265 97.2356 39.7951 96.4103 40.0371C95.5659 40.2847 94.6972 39.8099 94.4552 38.9847ZM106.285 40.7266C104.73 41.1824 103.966 42.6987 104.478 44.4452C104.979 46.1533 106.441 47.0168 107.995 46.561C109.588 46.0939 110.353 44.5776 109.852 42.8695C109.34 41.1231 107.878 40.2596 106.285 40.7266ZM104.322 52.8694L102.06 45.1543C101.171 42.1219 102.657 39.3726 105.632 38.5004C108.626 37.6225 111.381 39.1282 112.27 42.1605C113.148 45.1544 111.853 47.8475 109.147 48.641C107.9 49.0067 106.695 48.8805 105.678 48.3243L106.798 52.1435C106.995 52.8152 106.601 53.535 105.93 53.732C105.239 53.9345 104.519 53.5412 104.322 52.8694Z" fill="#FCFCF4"/>
<rect x="133.412" y="7.27864" width="102" height="66" rx="29" transform="rotate(19.2708 133.412 7.27864)" stroke="#CC3694" stroke-width="2"/>
<path d="M139.865 49.7266L143.786 38.5122C143.977 37.9647 144.589 37.67 145.136 37.8614L152.027 40.2707C152.688 40.5017 153.032 41.2151 152.787 41.9137C152.556 42.5745 151.843 42.9183 151.182 42.6872L145.839 40.8192L144.777 43.8588L149.629 45.5552C150.384 45.8192 150.679 46.3675 150.422 47.1038C150.164 47.8401 149.585 48.1036 148.83 47.8396L143.978 46.1432L142.909 49.2017L148.251 51.0697C148.912 51.3007 149.256 52.0141 149.025 52.6749C148.781 53.3735 148.067 53.7173 147.407 53.4862L140.516 51.077C139.968 50.8856 139.673 50.2741 139.865 49.7266ZM153.659 54.9731L152.78 46.2757C152.708 45.5726 153.223 44.9475 153.945 44.8822C154.123 44.8595 154.325 44.8877 154.476 44.9405C154.929 45.0989 155.29 45.5217 155.345 46.0285L155.887 52.2351L160.16 47.7117C160.5 47.3434 161.046 47.2376 161.499 47.396C161.669 47.4554 161.844 47.5591 161.969 47.6875C162.493 48.1885 162.507 48.9983 162.012 49.5034L155.906 55.7585C155.54 56.139 155.235 56.2231 154.8 56.0713L154.328 55.9063C153.894 55.7545 153.708 55.4988 153.659 54.9731ZM170.349 57.0794L164.553 55.053C164.452 56.3735 165.137 57.5031 166.383 57.9387C167.101 58.1895 167.726 58.2809 168.411 58.1391C168.772 58.0748 169.101 58.1048 169.346 58.1907C169.988 58.4151 170.251 59.0578 170.059 59.6053C169.538 61.0967 166.675 60.4983 165.618 60.1287C162.691 59.1056 161.347 56.2839 162.377 53.3387C163.407 50.3935 166.141 48.9976 168.954 49.9811C171.653 50.925 172.899 53.5428 171.942 56.2804C171.605 57.2432 170.84 57.251 170.349 57.0794ZM168.188 52.1711C167.036 51.7685 165.878 52.2323 165.154 53.335L169.704 54.9257C169.931 53.6703 169.34 52.5738 168.188 52.1711ZM179.01 64.1331L180.793 59.0357C181.255 57.7141 180.71 56.4854 179.482 56.0564C178.236 55.6207 177.044 56.2422 176.582 57.5637L174.8 62.6612C174.734 62.85 174.505 62.9605 174.316 62.8945L172.598 62.2938C172.409 62.2278 172.299 61.9985 172.365 61.8097L175.249 53.5594C175.48 52.8986 176.219 52.5425 176.899 52.7802C177.465 52.9782 177.818 53.5463 177.746 54.1145C178.656 53.7546 179.681 53.7316 180.738 54.1012C183.098 54.9263 184.139 57.2818 183.248 59.8305L181.446 64.9846C181.38 65.1734 181.15 65.2839 180.962 65.2179L179.244 64.6172C179.055 64.5512 178.944 64.3219 179.01 64.1331ZM190.677 60.0551L189.941 59.7976L187.4 67.0662C187.334 67.255 187.104 67.3655 186.915 67.2995L185.197 66.6988C185.009 66.6328 184.898 66.4035 184.964 66.2147L187.505 58.9461L186.769 58.6887C186.184 58.4841 185.877 57.8471 186.081 57.2618C186.286 56.6766 186.923 56.3696 187.508 56.5742L188.245 56.8317L188.76 55.3591C188.991 54.6983 189.729 54.3422 190.409 54.5798C191.07 54.8108 191.426 55.5498 191.195 56.2105L190.68 57.6831L191.416 57.9406C192.002 58.1452 192.309 58.7822 192.104 59.3675C191.899 59.9527 191.262 60.2597 190.677 60.0551ZM197.46 59.9477C198.499 60.3107 200.69 61.4369 200.188 62.8718C199.997 63.4193 199.41 63.7649 198.805 63.5537C198.56 63.4679 198.31 63.2745 198.079 63.0244C197.674 62.6074 197.242 62.3291 196.694 62.1377C196.147 61.9462 195.708 62.1106 195.556 62.5449C195.074 63.923 199.975 64.8738 198.774 68.3098C198.107 70.2166 196.257 70.9044 194.01 70.1189C192.972 69.7559 190.478 68.5873 190.999 67.0958C191.19 66.5483 191.796 66.2092 192.438 66.4337C192.684 66.5195 192.953 66.7195 193.202 66.9761C193.65 67.4507 194.153 67.7111 194.776 67.9289C195.625 68.2259 196.211 67.9435 196.356 67.5282C196.885 66.0178 191.984 65.0671 193.139 61.7632C193.772 59.9508 195.421 59.2348 197.46 59.9477Z" fill="#CC3694"/>
<g filter="url(#filter0_d_228_3717)">
<rect x="206.971" y="25.2612" width="60" height="60" rx="30" fill="#EDF9FF" shape-rendering="crispEdges"/>
<circle cx="236.971" cy="55.2612" r="20" fill="#0070FF"/>
</g>
<rect x="233.291" y="48.9087" width="117" height="66" rx="29" transform="rotate(-24 233.291 48.9087)" stroke="#FF3301" stroke-width="2"/>
<path d="M266.241 61.254C267.575 60.6602 269.019 60.4115 270.294 60.7193C271.472 61.0049 271.944 62.0646 271.575 62.7106C271.447 62.9645 271.234 63.1251 271.014 63.2227C270.594 63.4098 270.076 63.3776 269.483 63.2257C268.775 63.0597 267.96 63.247 267.266 63.5561C265.75 64.2313 265.444 65.2651 265.785 66.0325C266.892 68.5174 273.031 63.7697 275.138 68.5018C276.033 70.5116 275.357 73.221 272.177 74.6364C270.497 75.3848 268.854 75.4814 267.286 75.1067C266.108 74.8212 265.636 73.7614 266.005 73.1154C266.133 72.8615 266.346 72.701 266.565 72.6033C266.986 72.4162 267.503 72.4484 268.096 72.6003C269.098 72.8332 270.111 72.798 271.152 72.3343C272.687 71.651 273.054 70.4587 272.672 69.6C271.59 67.17 265.531 72.1004 263.319 67.1307C262.465 65.2123 263.062 62.6695 266.241 61.254ZM277.015 67.469L275.039 63.0292C274.754 62.3897 275.048 61.6239 275.706 61.3311C276.345 61.0464 277.111 61.3403 277.396 61.9798L279.348 66.3648C279.917 67.6438 281.156 68.1648 282.344 67.6361C283.532 67.1073 283.974 65.8379 283.404 64.5589L281.452 60.1739C281.167 59.5344 281.461 58.7686 282.101 58.4839C282.758 58.1911 283.524 58.485 283.809 59.1245L285.785 63.5643C286.884 66.0309 285.84 68.5537 283.263 69.7007C280.687 70.8477 278.114 69.9356 277.015 67.469ZM291.299 56.906C289.819 57.5649 289.264 59.1695 290.004 60.8322C290.728 62.4583 292.292 63.1193 293.772 62.4604C295.289 61.7852 295.844 60.1806 295.12 58.5545C294.38 56.8918 292.816 56.2308 291.299 56.906ZM290.972 69.2021L287.702 61.8572C286.417 58.9704 287.524 56.0475 290.356 54.7866C293.206 53.5176 296.137 54.6427 297.422 57.5295C298.691 60.3797 297.767 63.2213 295.191 64.3683C294.003 64.897 292.793 64.9324 291.71 64.5168L293.329 68.1527C293.614 68.7922 293.32 69.5579 292.681 69.8426C292.023 70.1355 291.257 69.8415 290.972 69.2021ZM303.142 51.6334C301.662 52.2923 301.107 53.8969 301.847 55.5595C302.571 57.1857 304.135 57.8466 305.615 57.1877C307.131 56.5125 307.687 54.9079 306.963 53.2818C306.222 51.6192 304.658 50.9582 303.142 51.6334ZM302.815 63.9294L299.545 56.5845C298.259 53.6977 299.366 50.7748 302.198 49.5139C305.048 48.2449 307.98 49.37 309.265 52.2568C310.534 55.1071 309.61 57.9486 307.033 59.0956C305.846 59.6244 304.636 59.6597 303.553 59.2441L305.172 62.88C305.456 63.5195 305.163 64.2853 304.523 64.57C303.865 64.8629 303.1 64.5689 302.815 63.9294ZM318.291 54.0833C315.459 55.3442 312.547 54.2109 311.261 51.3241C309.992 48.4739 311.099 45.551 313.931 44.2901C316.781 43.0211 319.712 44.1462 320.981 46.9965C322.267 49.8833 321.142 52.8143 318.291 54.0833ZM317.348 51.9639C318.864 51.2887 319.42 49.6841 318.679 48.0214C317.955 46.3953 316.391 45.7343 314.875 46.4095C313.395 47.0684 312.839 48.6731 313.563 50.2992C314.304 51.9618 315.868 52.6228 317.348 51.9639ZM325.328 39.238L325.876 38.9939C326.442 38.7417 327.102 38.9951 327.354 39.5615C327.607 40.1279 327.353 40.7881 326.787 41.0403L326.239 41.2843C324.887 41.8863 324.617 43.1008 325.187 44.3798L327.375 49.2946C327.456 49.4774 327.365 49.715 327.182 49.7964L325.52 50.5366C325.337 50.618 325.099 50.5267 325.018 50.344L322.805 45.3743C321.707 42.9078 322.55 40.4744 325.328 39.238ZM333.83 37.9919L333.118 38.3092L336.25 45.3435C336.331 45.5262 336.24 45.7638 336.057 45.8452L334.394 46.5854C334.212 46.6668 333.974 46.5755 333.893 46.3928L330.761 39.3585L330.048 39.6758C329.482 39.928 328.822 39.6746 328.569 39.1082C328.317 38.5418 328.571 37.8816 329.137 37.6294L329.85 37.3122L329.215 35.8871C328.93 35.2476 329.224 34.4818 329.882 34.189C330.522 33.9042 331.287 34.1982 331.572 34.8377L332.207 36.2628L332.919 35.9456C333.486 35.6934 334.146 35.9468 334.398 36.5132C334.65 37.0796 334.397 37.7397 333.83 37.9919Z" fill="#FF4D0A"/>
<rect x="343" y="28.3765" width="76" height="68" rx="30" transform="rotate(-10 343 28.3765)" fill="#CC3694"/>
<path d="M370.656 63.7108L368.478 51.3613C368.378 50.7902 368.767 50.2341 369.338 50.1334L376.527 48.8658C377.217 48.7442 377.865 49.1984 377.994 49.9272C378.115 50.6166 377.661 51.2653 376.972 51.3869L371.398 52.3697L371.957 55.5408L377.019 54.6482C377.807 54.5093 378.333 54.8431 378.468 55.6112C378.604 56.3794 378.227 56.8926 377.439 57.0315L372.377 57.924L373.315 63.242C373.353 63.4586 373.207 63.6672 372.99 63.7054L371.119 64.0353C370.903 64.0735 370.694 63.9275 370.656 63.7108ZM381.651 57.8525L380.807 53.0663C380.686 52.377 381.156 51.705 381.865 51.58C382.555 51.4585 383.227 51.9289 383.348 52.6183L384.182 57.3454C384.425 58.7241 385.501 59.5295 386.781 59.3037C388.062 59.078 388.797 57.9531 388.554 56.5744L387.721 51.8473C387.599 51.1579 388.07 50.486 388.759 50.3645C389.468 50.2395 390.14 50.7099 390.262 51.3993L391.106 56.1855C391.574 58.8444 389.951 61.0397 387.174 61.5294C384.397 62.0191 382.12 60.5115 381.651 57.8525ZM401.121 58.3594L400.183 53.0414C399.94 51.6627 398.864 50.8574 397.583 51.0831C396.283 51.3123 395.547 52.4372 395.791 53.8159L396.728 59.1339C396.763 59.3308 396.617 59.5394 396.42 59.5741L394.628 59.8901C394.431 59.9249 394.222 59.7789 394.187 59.5819L392.67 50.9747C392.548 50.2853 393.019 49.6134 393.728 49.4884C394.319 49.3842 394.904 49.7075 395.119 50.2382C395.737 49.4794 396.62 48.9582 397.723 48.7637C400.185 48.3295 402.244 49.8754 402.713 52.5343L403.661 57.9114C403.696 58.1084 403.55 58.3169 403.353 58.3516L401.561 58.6676C401.364 58.7024 401.155 58.5564 401.121 58.3594Z" fill="#FCFCF4"/>
<defs>
<filter id="filter0_d_228_3717" x="202.971" y="25.2612" width="68" height="68" filterUnits="userSpaceOnUse" color-interpolation-filters="sRGB">
<feFlood flood-opacity="0" result="BackgroundImageFix"/>
<feColorMatrix in="SourceAlpha" type="matrix" values="0 0 0 0 0 0 0 0 0 0 0 0 0 0 0 0 0 0 127 0" result="hardAlpha"/>
<feOffset dy="4"/>
<feGaussianBlur stdDeviation="2"/>
<feComposite in2="hardAlpha" operator="out"/>
<feColorMatrix type="matrix" values="0 0 0 0 0 0 0 0 0 0 0 0 0 0 0 0 0 0 0.04 0"/>
<feBlend mode="normal" in2="BackgroundImageFix" result="effect1_dropShadow_228_3717"/>
<feBlend mode="normal" in="SourceGraphic" in2="effect1_dropShadow_228_3717" result="shape"/>
</filter>
</defs>
</svg>
