<svg width="186" height="39" viewBox="0 0 186 39" fill="none" xmlns="http://www.w3.org/2000/svg">
<path d="M18.7465 15.2094C16.298 15.2094 14.3132 17.1942 14.3132 19.6427C14.3132 22.0912 16.298 24.076 18.7465 24.076C21.195 24.076 23.1798 22.0912 23.1798 19.6427C23.1841 18.4656 22.7183 17.3355 21.886 16.5032C21.0537 15.6709 19.9236 15.2051 18.7465 15.2094Z" fill="#0070FF"/>
<path fill-rule="evenodd" clip-rule="evenodd" d="M24.8423 4.04688H12.6665C7.4198 4.04688 3.1665 8.30017 3.1665 13.5469V25.7227C3.1665 30.9694 7.4198 35.2227 12.6665 35.2227H24.8423C30.089 35.2227 34.3423 30.9694 34.3423 25.7227V13.5469C34.3423 8.30017 30.089 4.04688 24.8423 4.04688ZM18.7465 26.4352C14.9987 26.4265 11.9627 23.3905 11.954 19.6427C11.9476 16.8861 13.604 14.3977 16.1496 13.3398C18.6951 12.282 21.6273 12.8635 23.5765 14.8127C25.5257 16.7619 26.1072 19.6941 25.0494 22.2396C23.9915 24.7852 21.5031 26.4416 18.7465 26.4352ZM24.6601 11.8238C24.9313 12.4702 25.5665 12.8883 26.2673 12.8819C27.2117 12.8819 27.9773 12.1163 27.9773 11.1719C27.9837 10.471 27.5656 9.83586 26.9193 9.56469C26.273 9.29351 25.5268 9.44015 25.0312 9.93577C24.5356 10.4314 24.389 11.1775 24.6601 11.8238Z" fill="#0070FF"/>
<path d="M108.549 19.7505C108.549 27.6906 102.611 34.3763 94.7269 35.3147V24.7063H97.5136C97.9043 24.7085 98.2329 24.4141 98.2736 24.0255L98.5744 21.7297C98.5953 21.5117 98.5268 21.2945 98.3844 21.128C98.2388 20.9558 98.0242 20.8572 97.7986 20.8588H94.7269V18.1672C94.7269 17.2927 95.4358 16.5838 96.3103 16.5838H97.8936C98.0979 16.5881 98.2953 16.5099 98.4413 16.3669C98.5872 16.2239 98.6695 16.0282 98.6694 15.8238V13.2747C98.6644 12.8781 98.3666 12.5464 97.9728 12.4988C97.9728 12.4988 96.8328 12.4038 95.4711 12.4038C92.0828 12.4038 90.2144 14.4147 90.2144 18.0722V20.8588H87.0478C86.6193 20.8588 86.2719 21.2062 86.2719 21.6347V23.9305C86.2719 24.359 86.6193 24.7063 87.0478 24.7063H90.1194V35.188C81.9359 33.7371 76.3033 26.1568 77.2755 17.9027C78.2477 9.64861 85.4874 3.58439 93.7841 4.07461C102.081 4.56482 108.556 11.4394 108.549 19.7505Z" fill="#0070FF"/>
<path fill-rule="evenodd" clip-rule="evenodd" d="M176.46 27.7601C176.462 28.0737 176.361 28.1639 176.056 28.1567C175.189 28.1401 174.322 28.1271 173.457 28.1615C173.022 28.1793 172.891 28.0665 172.897 27.6142C172.923 25.6654 172.907 23.7155 172.91 21.7657C172.91 21.2314 172.875 20.7017 172.679 20.1981C172.346 19.3479 171.773 18.772 170.821 18.6888C169.81 18.5997 169.075 19.0605 168.578 19.9144C168.253 20.4737 168.178 21.0982 168.179 21.7371C168.184 23.7072 168.169 25.6761 168.191 27.6449C168.197 28.069 168.068 28.1746 167.661 28.1603C166.796 28.1306 165.929 28.1379 165.062 28.158C164.73 28.1662 164.629 28.0665 164.629 27.7292C164.639 23.6727 164.638 19.6162 164.631 15.5599C164.631 15.2689 164.69 15.1382 165.018 15.1454C165.943 15.1655 166.869 15.1655 167.794 15.1454C168.115 15.1395 168.199 15.2557 168.186 15.5551C168.166 16.0408 168.182 16.5276 168.182 17.1403C169.553 15.4446 171.205 14.8877 173.167 15.2832C175.067 15.6666 176.374 17.3767 176.429 19.6674C176.493 22.3629 176.445 25.0621 176.46 27.7601ZM160.494 13.6361C159.343 13.6336 158.443 12.7216 158.445 11.5627C158.448 10.4179 159.375 9.48461 160.506 9.48686C161.637 9.49043 162.556 10.4274 162.553 11.5733C162.55 12.7348 161.648 13.6384 160.494 13.6361ZM161.767 28.1615C160.902 28.1271 160.034 28.1401 159.169 28.1567C158.858 28.1628 158.718 28.1057 158.72 27.7447C158.732 23.6905 158.73 19.6377 158.721 15.5835C158.72 15.2582 158.798 15.1358 159.145 15.1454C160.029 15.1679 160.916 15.1739 161.8 15.1429C162.207 15.1287 162.282 15.2795 162.28 15.6476C162.264 17.6545 162.273 19.6614 162.273 21.6694C162.273 23.6561 162.261 25.6441 162.281 27.6319C162.286 28.0356 162.193 28.1782 161.767 28.1615ZM181.121 10.4394C181.04 9.79443 181.029 9.13061 180.673 8.55361C179.52 6.6833 177.929 5.61799 175.647 5.62998C169.876 5.65967 164.105 5.62998 158.334 5.65017C157.467 5.65243 156.575 5.68093 155.788 6.14643C153.866 7.28405 152.738 8.87411 152.75 11.2052C152.777 16.9955 152.75 22.7857 152.769 28.5771C152.773 29.3929 152.785 30.2467 153.212 30.9818C154.221 32.7204 155.551 34.0112 157.736 34.0028C157.799 34.0028 157.848 34.0325 157.9 34.0598H176.099C176.2 33.9695 176.323 34.0147 176.437 34.0004C177.091 33.9185 177.767 33.9149 178.348 33.5397C179.971 32.4899 181.164 31.1682 181.128 29.0794C181.128 29.0426 181.154 29.0095 181.181 28.9786V10.7802C181.1 10.6769 181.135 10.5544 181.121 10.4394Z" fill="#0070FF"/>
</svg>
