<svg width="30" height="30" viewBox="0 0 30 30" fill="none" xmlns="http://www.w3.org/2000/svg">
<path fill-rule="evenodd" clip-rule="evenodd" d="M24.4596 22.9005C24.4621 23.2141 24.3612 23.3042 24.056 23.2971C23.1891 23.2805 22.3221 23.2674 21.4565 23.3019C21.0219 23.3197 20.8912 23.2069 20.8971 22.7546C20.9233 20.8057 20.9066 18.8559 20.9102 16.9061C20.9102 16.3717 20.8747 15.8421 20.6786 15.3385C20.3461 14.4882 19.7725 13.9124 18.8215 13.8292C17.8096 13.7401 17.0747 14.2009 16.5783 15.0548C16.2529 15.6141 16.1781 16.2386 16.1793 16.8775C16.184 18.8476 16.1686 20.8164 16.191 22.7853C16.1971 23.2094 16.0675 23.3149 15.6614 23.3007C14.7957 23.271 13.9288 23.2782 13.0621 23.2984C12.7296 23.3066 12.6285 23.2069 12.6285 22.8696C12.6393 18.8131 12.638 14.7566 12.631 10.7002C12.631 10.4093 12.6904 10.2786 13.018 10.2858C13.9431 10.3059 14.8693 10.3059 15.7944 10.2858C16.115 10.2799 16.1993 10.3961 16.1863 10.6955C16.1661 11.1812 16.1815 11.6679 16.1815 12.2807C17.5532 10.5849 19.2049 10.0281 21.1668 10.4236C23.0668 10.807 24.3741 12.5171 24.4287 14.8078C24.4928 17.5033 24.4455 20.2025 24.4596 22.9005ZM8.49378 8.77649C7.34298 8.77399 6.44285 7.86199 6.44534 6.70311C6.4476 5.55825 7.37516 4.62499 8.50554 4.62725C9.63734 4.63081 10.5565 5.56775 10.5529 6.71368C10.5504 7.87518 9.64803 8.77874 8.49378 8.77649ZM9.76678 23.3019C8.90217 23.2674 8.03422 23.2805 7.16853 23.2971C6.85848 23.3032 6.71847 23.2461 6.71954 22.8851C6.73153 18.8309 6.73023 14.7781 6.72073 10.7239C6.71954 10.3986 6.79803 10.2762 7.14467 10.2858C8.02947 10.3082 8.91642 10.3143 9.80003 10.2833C10.2072 10.2691 10.282 10.4199 10.2798 10.788C10.2643 12.7949 10.2725 14.8017 10.2725 16.8098C10.2725 18.7965 10.2608 20.7845 10.281 22.7722C10.2857 23.176 10.193 23.3186 9.76678 23.3019ZM29.1205 5.57974C29.0398 4.93481 29.0291 4.271 28.6729 3.69399C27.5199 1.82368 25.9285 0.75837 23.6474 0.770364C17.8762 0.800051 12.105 0.770364 6.3336 0.790551C5.46685 0.792808 4.57503 0.821308 3.78772 1.28681C1.86623 2.42443 0.738101 4.0145 0.750095 6.34556C0.777288 12.1359 0.750095 17.9261 0.768976 23.7175C0.772538 24.5333 0.784532 25.3871 1.21191 26.1222C2.22129 27.8608 3.55141 29.1516 5.73629 29.1432C5.79923 29.1432 5.84803 29.1729 5.90028 29.2002H24.0987C24.1997 29.1099 24.3232 29.1551 24.4372 29.1408C25.0914 29.0589 25.7672 29.0553 26.3477 28.6801C27.971 27.6303 29.1645 26.3086 29.1278 24.2198C29.1278 24.183 29.1538 24.1499 29.1812 24.119V5.92055C29.1004 5.81724 29.1348 5.69481 29.1205 5.57974Z" fill="#0070FF"/>
</svg>
