<svg width="32" height="32" viewBox="0 0 32 32" fill="none" xmlns="http://www.w3.org/2000/svg">
<path d="M15.7468 11.3495C13.2983 11.3495 11.3134 13.3344 11.3134 15.7828C11.3134 18.2313 13.2983 20.2162 15.7468 20.2162C18.1952 20.2162 20.1801 18.2313 20.1801 15.7828C20.1843 14.6058 19.7186 13.4757 18.8863 12.6433C18.0539 11.811 16.9238 11.3453 15.7468 11.3495Z" fill="#0070FF"/>
<path fill-rule="evenodd" clip-rule="evenodd" d="M21.8426 0.187012H9.66675C4.42004 0.187012 0.166748 4.44031 0.166748 9.68701V21.8628C0.166748 27.1096 4.42004 31.3628 9.66675 31.3628H21.8426C27.0893 31.3628 31.3426 27.1096 31.3426 21.8628V9.68701C31.3426 4.44031 27.0893 0.187012 21.8426 0.187012ZM15.7468 22.5753C11.999 22.5666 8.96295 19.5306 8.95425 15.7828C8.94785 13.0263 10.6043 10.5378 13.1498 9.47998C15.6954 8.42212 18.6276 9.00361 20.5768 10.9528C22.526 12.902 23.1075 15.8342 22.0496 18.3798C20.9918 20.9253 18.5033 22.5817 15.7468 22.5753ZM21.6604 7.96397C21.9316 8.61029 22.5667 9.02841 23.2676 9.02201C24.212 9.02201 24.9776 8.25642 24.9776 7.31201C24.984 6.61114 24.5659 5.976 23.9195 5.70482C23.2732 5.43364 22.5271 5.58029 22.0315 6.0759C21.5359 6.57152 21.3892 7.31765 21.6604 7.96397Z" fill="#0070FF"/>
</svg>
