<svg width="32" height="32" viewBox="0 0 32 32" fill="none" xmlns="http://www.w3.org/2000/svg">
<path d="M31.5497 15.8907C31.5492 23.8308 25.6117 30.5164 17.7272 31.4548V20.8465H20.5139C20.9045 20.8486 21.2332 20.5542 21.2739 20.1657L21.5747 17.8698C21.5956 17.6518 21.527 17.4346 21.3847 17.2682C21.239 17.0959 21.0244 16.9973 20.7989 16.999H17.7272V14.3073C17.7272 13.4329 18.4361 12.724 19.3105 12.724H20.8939C21.0981 12.7282 21.2956 12.6501 21.4415 12.5071C21.5875 12.3641 21.6697 12.1683 21.6697 11.964V9.41482C21.6646 9.0182 21.3668 8.68655 20.973 8.63898C20.973 8.63898 19.833 8.54398 18.4714 8.54398C15.083 8.54398 13.2147 10.5548 13.2147 14.2123V16.999H10.048C9.61954 16.999 9.27219 17.3463 9.27219 17.7748V20.0707C9.27219 20.4991 9.61954 20.8465 10.048 20.8465H13.1197V31.3281C4.93618 29.8773 -0.696448 22.2969 0.275748 14.0428C1.24794 5.78875 8.48769 -0.275469 16.7843 0.214742C25.081 0.704953 31.5563 7.57953 31.5497 15.8907Z" fill="#0070FF"/>
</svg>
