<svg width="202" height="197" viewBox="0 0 202 197" fill="none" xmlns="http://www.w3.org/2000/svg">
<g opacity="0.75">
<path d="M3.34036 50.957C-10.6667 0.199805 41.2207 -4.96666 78.6662 10.3594C100.514 18.2413 114.862 -6.27101 141.927 3.51156C168.992 13.2941 136.547 44.1092 177.959 59.9244C219.372 75.7396 199.155 146.5 162.959 147.315C126.764 148.131 136.709 160.033 100.514 187.261C64.3184 214.489 3.34044 176.663 18.5034 136.718C33.6664 96.772 18.5032 105.902 3.34036 50.957Z" stroke="#FF7332" stroke-width="0.978257"/>
<path d="M81.2416 90.4586C79.6255 85.6243 87.1953 77.8253 93.2823 81.1537C98.8562 84.2015 104.532 82.1459 108.282 83.5047C118.154 87.0819 114.523 88.9754 118.936 93.2239C124.307 98.3937 126.869 111.931 114.523 111.931C104.369 111.931 107.407 116.863 99.8039 119.048C92.2006 121.233 83.5778 117.514 83.5778 107.721C83.5778 104.043 83.9334 98.5103 81.2416 90.4586Z" stroke="#FF7332" stroke-width="0.978257"/>
<path d="M10.4211 54.3015C-2.4595 7.71908 45.3991 2.31329 79.9938 16.5486C100.362 23.9911 113.922 1.52031 138.867 10.5371C164.369 19.7555 134.543 47.9414 172.592 62.705C210.729 77.5524 192.582 143.111 158.555 143.852C124.727 144.593 134.044 155.862 100.448 180.813C66.852 205.765 10.6336 171.039 24.4181 133.835C38.2026 97.1865 24.4503 104.984 10.4211 54.3015Z" stroke="#FF7332" stroke-width="0.978257"/>
<path d="M17.5024 57.6461C5.74824 15.2385 49.5779 9.59339 81.3219 22.738C100.211 29.7411 112.982 9.31177 135.808 17.5627C159.747 26.2171 132.54 51.7737 167.226 65.4858C202.086 79.3655 186.01 139.722 154.151 140.389C122.69 141.056 131.38 151.691 100.383 174.365C69.3861 197.04 17.9272 165.416 30.3333 130.952C42.7394 97.601 30.3978 104.065 17.5024 57.6461Z" stroke="#FF7332" stroke-width="0.978257"/>
<path d="M24.5833 60.9909C13.9555 22.7581 53.7564 16.8737 82.6495 28.9276C100.059 35.4912 112.042 17.1034 132.748 24.5886C155.124 32.6788 130.537 55.6062 161.859 68.2668C193.442 81.1787 179.438 136.333 149.747 136.926C120.653 137.519 128.715 147.52 100.317 167.918C71.9198 188.316 25.2205 159.792 36.2481 128.07C47.2757 98.0158 36.3449 103.147 24.5833 60.9909Z" stroke="#FF7332" stroke-width="0.978257"/>
<path d="M31.6642 64.3359C22.1629 30.278 57.9348 24.1542 83.9772 35.1174C99.9072 41.2416 111.102 24.8953 129.688 31.6147C150.502 39.1407 128.534 59.4389 156.493 71.048C184.799 82.9921 172.865 132.944 145.342 133.463C118.616 133.982 126.05 143.349 100.252 161.471C74.4535 179.592 32.5137 154.169 42.1629 125.188C51.8121 98.4308 42.2921 102.229 31.6642 64.3359Z" stroke="#FF7332" stroke-width="0.978257"/>
<path d="M38.7457 67.8504C30.3708 37.9673 62.1139 31.6042 85.3055 41.4767C99.756 47.1614 110.162 32.8567 126.629 38.8102C145.88 45.7722 126.531 63.4411 151.126 73.9987C176.156 84.975 166.293 129.725 140.938 130.17C116.58 130.614 123.386 139.348 100.187 155.193C76.9877 171.038 39.8076 148.715 48.0783 122.475C56.349 99.0152 48.2398 101.481 38.7457 67.8504Z" stroke="#FF7332" stroke-width="0.978257"/>
<path d="M45.8268 71.5654C38.5784 45.857 66.2926 39.2546 86.6334 48.0365C99.6045 53.2817 109.222 41.0184 123.57 46.2062C141.257 52.604 124.529 67.6437 145.76 77.1498C167.513 87.1584 159.721 126.706 136.534 127.077C114.543 127.447 120.721 135.548 100.121 149.116C79.5217 162.684 47.1011 143.462 53.9933 119.963C60.8856 99.8001 54.1872 100.932 45.8268 71.5654Z" stroke="#FF7332" stroke-width="0.978257"/>
<path d="M52.9085 75.2915C46.7866 53.7579 70.4719 46.9162 87.962 54.6074C99.4536 59.4131 108.283 49.1914 120.511 53.6134C136.635 59.4471 122.526 71.8575 140.394 80.3121C158.87 89.3529 153.149 123.699 132.131 123.995C112.507 124.292 118.057 131.758 100.057 143.05C82.0562 154.341 54.3952 138.22 59.909 117.462C65.4228 100.596 60.1352 100.395 52.9085 75.2915Z" stroke="#FF7332" stroke-width="0.978257"/>
<path d="M59.9901 79.0337C54.9946 61.6749 74.651 54.5939 89.2903 61.1943C99.3026 65.5606 107.344 57.3804 117.452 61.0366C132.013 66.3062 120.524 76.0874 135.028 83.4904C150.228 91.5635 146.578 120.707 127.727 120.93C110.471 121.152 115.393 127.985 99.9918 137C84.5906 146.015 61.6891 132.993 65.8245 114.977C69.9598 101.408 66.083 99.8746 59.9901 79.0337Z" stroke="#FF7332" stroke-width="0.978257"/>
<path d="M67.0721 82.7995C63.2031 69.6155 78.8307 62.2952 90.6192 67.8049C99.152 71.7317 106.405 65.5931 114.394 68.4835C127.392 73.1889 118.522 80.3409 129.662 86.6924C141.586 93.7977 140.006 117.739 123.324 117.888C108.435 118.036 112.729 124.235 99.9274 130.973C87.1255 137.712 68.9836 127.791 71.7405 112.516C74.4974 102.244 72.0314 99.3773 67.0721 82.7995Z" stroke="#FF7332" stroke-width="0.978257"/>
<path d="M74.1558 86.6012C71.4132 77.592 83.0119 70.0324 91.9496 74.4514C99.0029 77.9387 105.467 73.8416 111.337 75.9662C122.772 80.1075 116.521 84.6303 124.298 89.9302C132.945 96.0678 133.437 114.807 118.922 114.881C106.401 114.956 110.067 120.521 99.8645 124.983C89.6619 129.445 76.2795 122.624 77.658 110.09C79.0364 103.116 77.9812 98.916 74.1558 86.6012Z" stroke="#FF7332" stroke-width="0.978257"/>
</g>
</svg>
