<svg width="20" height="25" viewBox="0 0 20 25" fill="none" xmlns="http://www.w3.org/2000/svg">
<path d="M10.9213 0.419584L18.9135 8.19292C19.4566 8.7019 19.475 9.54193 18.9547 10.0729C18.6972 10.3253 18.3469 10.4673 17.9813 10.4673C17.6158 10.4673 17.2654 10.3253 17.008 10.0729L11.3189 4.57958V18.7529C11.3189 19.4893 10.7051 20.0863 9.94798 20.0863C9.19087 20.0863 8.5771 19.4893 8.5771 18.7529V4.57958L2.92908 10.0729C2.38517 10.526 1.57439 10.4955 1.06803 10.003C0.56167 9.51051 0.530353 8.72193 0.996146 8.19292L8.98837 0.419584C9.52306 -0.0973808 10.3866 -0.0973808 10.9213 0.419584Z" fill="#4F4F4F"/>
<path d="M3.09359 21.4196H16.8024C17.5595 21.4196 18.1733 22.0165 18.1733 22.7529C18.1733 23.4893 17.5595 24.0863 16.8024 24.0863H3.09359C2.33647 24.0863 1.72271 23.4893 1.72271 22.7529C1.72271 22.0165 2.33647 21.4196 3.09359 21.4196Z" fill="#4F4F4F"/>
</svg>
